<?xml version="1.0" encoding="utf-8"?>
<svg xmlns="http://www.w3.org/2000/svg" viewBox="0 0 500 500">
  <defs>
    <path id="path-0" d="M 138.639 240.693 C 165.341 260.386 195.124 269.898 220.154 282.413 L 220.796 282.413" style="fill: none;"/>
  </defs>
  <path fill-rule="evenodd" clip-rule="evenodd" d="M 638.531 203.874 L 635.124 203.874 C 634.053 203.874 633.129 203.874 632.369 203.939 C 631.566 204.007 630.767 204.157 629.998 204.564 C 628.852 205.171 627.919 206.139 627.335 207.33 C 626.944 208.128 626.799 208.957 626.733 209.791 C 626.671 210.581 626.671 211.54 626.671 212.652 L 626.671 237.284 C 626.671 238.396 626.671 239.355 626.733 240.145 C 626.799 240.979 626.944 241.809 627.335 242.607 C 627.919 243.797 628.852 244.765 629.998 245.372 C 630.767 245.779 631.566 245.929 632.369 245.997 C 633.129 246.062 634.053 246.062 635.124 246.062 L 638.531 246.062 C 639.601 246.062 640.525 246.062 641.286 245.997 C 642.089 245.929 642.888 245.779 643.656 245.372 C 644.803 244.765 645.735 243.797 646.319 242.607 C 646.711 241.809 646.856 240.979 646.921 240.145 C 646.983 239.355 646.983 238.396 646.983 237.284 L 646.983 212.652 C 646.983 211.541 646.983 210.581 646.921 209.791 C 646.856 208.957 646.711 208.128 646.319 207.33 C 645.735 206.139 644.803 205.171 643.656 204.564 C 642.888 204.157 642.089 204.007 641.286 203.939 C 640.525 203.874 639.601 203.874 638.531 203.874 Z M 636.827 237.624 C 637.949 237.624 638.858 236.68 638.858 235.515 C 638.858 234.35 637.949 233.406 636.827 233.406 C 635.705 233.406 634.796 234.35 634.796 235.515 C 634.796 236.68 635.705 237.624 636.827 237.624 Z" fill="white" style="stroke-width: 1;"/>
  <path opacity="0.2" d="M 648.546 238.249 L 662.249 224.733 C 663.013 223.979 663.672 223.329 664.171 222.75 C 664.697 222.139 665.164 221.474 665.432 220.658 C 665.834 219.44 665.834 218.127 665.432 216.909 C 665.164 216.093 664.697 215.428 664.171 214.817 C 663.672 214.238 663.013 213.588 662.249 212.834 L 659.818 210.436 C 659.054 209.683 658.395 209.033 657.808 208.541 C 657.188 208.022 656.515 207.562 655.687 207.296 C 654.452 206.9 653.121 206.9 651.886 207.296 C 651.058 207.562 650.385 208.022 649.765 208.541 C 649.392 208.853 648.99 209.229 648.551 209.656 C 648.589 210.388 648.589 211.206 648.589 212.042 L 648.589 235.777 C 648.589 236.646 648.589 237.496 648.546 238.249 Z" fill="white" style="stroke-width: 1;"/>
  <path opacity="0.2" d="M 645.418 243.888 L 643.858 244.499 L 658.565 244.499 C 659.671 244.5 660.625 244.5 661.411 244.438 C 662.24 244.374 663.065 244.231 663.859 243.845 C 665.043 243.269 666.006 242.35 666.61 241.22 C 667.014 240.462 667.164 239.675 667.232 238.883 C 667.296 238.133 667.296 237.223 667.296 236.167 L 667.296 232.809 C 667.296 231.754 667.296 230.843 667.232 230.093 C 667.164 229.302 667.014 228.514 666.61 227.757 C 666.19 226.971 665.596 226.287 664.875 225.749 C 664.57 226.049 664.249 226.355 663.924 226.665 L 646.79 243.016 C 646.398 243.39 645.931 243.687 645.418 243.888 Z" fill="white" style="stroke-width: 1;"/>
  <text style="white-space: pre; fill: rgb(51, 51, 51); font-family: Arial, sans-serif; font-size: 28px;" x="587.933" y="270.86" transform="matrix(0.351135, 0, 0, 0.3054, 419.731384, 173.162247)">About Me</text>
  <text style="white-space: pre; fill: rgb(51, 51, 51); font-family: Arial, sans-serif; font-size: 28px;" x="717.587" y="65.469"> </text>
</svg>